<svg width="95" height="82" viewBox="0 0 95 82" fill="none" xmlns="http://www.w3.org/2000/svg">
<path d="M5.98735 28.3607V28.3041C5.98726 22.7129 7.80875 17.2469 11.222 12.5958C14.6353 7.94472 19.4874 4.31683 25.1662 2.16987C30.845 0.0229029 37.096 -0.54694 43.1306 0.532231C49.1653 1.6114 54.7131 4.29123 59.0743 8.23363C62.5057 6.69399 66.3384 6.04664 70.1491 6.36312C73.9598 6.6796 77.6001 7.94759 80.6677 10.027C83.7354 12.1064 86.1111 14.9162 87.5322 18.1461C88.9534 21.376 89.3647 24.9001 88.7208 28.3292C89.6675 28.4091 90.586 28.6655 91.4188 29.0825C92.2517 29.4994 92.981 30.0679 93.5614 30.7525C94.1418 31.4372 94.5608 32.2232 94.7921 33.0616C95.0235 33.8999 95.0623 34.7727 94.9061 35.6253C91.7788 52.727 84.0438 63.5515 71.7147 68.1053V72.332C71.7147 74.8342 70.6213 77.2339 68.6751 79.0032C66.7288 80.7725 64.0891 81.7665 61.3367 81.7665H33.662C30.9096 81.7665 28.2699 80.7725 26.3237 79.0032C24.3774 77.2339 23.284 74.8342 23.284 72.332V68.1053C10.955 63.5515 3.21988 52.727 0.0926456 35.6253C-0.05828 34.7953 -0.0245324 33.9463 0.191891 33.1284C0.408314 32.3105 0.803016 31.5403 1.35264 30.8636C1.90226 30.1868 2.59563 29.6172 3.39171 29.1883C4.1878 28.7595 5.07042 28.4802 5.98735 28.367V28.3607ZM12.906 28.3041H19.8247C19.8247 24.1337 21.647 20.1342 24.8908 17.1853C28.1345 14.2365 32.534 12.5798 37.1214 12.5798C41.7087 12.5798 46.1082 14.2365 49.352 17.1853C52.5957 20.1342 54.418 24.1337 54.418 28.3041H61.3367C61.3367 22.4656 58.7854 16.8663 54.2442 12.7379C49.7029 8.60943 43.5437 6.29012 37.1214 6.29012C30.6991 6.29012 24.5398 8.60943 19.9985 12.7379C15.4573 16.8663 12.906 22.4656 12.906 28.3041ZM26.7434 28.3041H47.4994C47.4994 25.8019 46.406 23.4021 44.4597 21.6328C42.5135 19.8635 39.8738 18.8695 37.1214 18.8695C34.3689 18.8695 31.7293 19.8635 29.783 21.6328C27.8367 23.4021 26.7434 25.8019 26.7434 28.3041ZM74.2469 28.3041H81.6568C82.1791 26.4453 82.2278 24.5026 81.7992 22.6242C81.3706 20.7457 80.4759 18.9809 79.1834 17.4644C77.8909 15.9479 76.2346 14.7195 74.3408 13.8731C72.447 13.0266 70.3657 12.5843 68.2554 12.5798C66.5949 12.5798 65.0174 12.844 63.5507 13.3283C64.7753 15.1146 65.7854 17.0392 66.5603 19.0582C67.8781 18.7611 69.2628 18.8223 70.5427 19.2342C71.8225 19.646 72.9412 20.3905 73.7598 21.3752C74.5784 22.3599 75.0609 23.5414 75.1475 24.7731C75.2342 26.0049 74.921 27.2327 74.2469 28.3041ZM64.796 69.1871H30.2027V72.332C30.2027 73.166 30.5672 73.9659 31.2159 74.5557C31.8647 75.1455 32.7446 75.4768 33.662 75.4768H61.3367C62.2542 75.4768 63.1341 75.1455 63.7828 74.5557C64.4316 73.9659 64.796 73.166 64.796 72.332V69.1871ZM27.7673 62.8974H67.2314C78.2044 59.6897 85.1508 50.6199 88.0843 34.5938H6.91445C9.84797 50.6199 16.7943 59.6897 27.7673 62.8974Z" fill="black"/>
</svg>
