<svg width="10" height="10" viewBox="0 0 10 10" fill="none" xmlns="http://www.w3.org/2000/svg">
<path fill-rule="evenodd" clip-rule="evenodd" d="M3.02076 4.16683C3.02076 3.07377 3.90687 2.18766 4.99993 2.18766C6.09299 2.18766 6.9791 3.07377 6.9791 4.16683C6.9791 5.25989 6.09299 6.146 4.99993 6.146C3.90687 6.146 3.02076 5.25989 3.02076 4.16683ZM4.99993 2.81266C4.25204 2.81266 3.64576 3.41894 3.64576 4.16683C3.64576 4.91472 4.25204 5.521 4.99993 5.521C5.74781 5.521 6.3541 4.91472 6.3541 4.16683C6.3541 3.41894 5.74781 2.81266 4.99993 2.81266Z" fill="#E71C20"/>
<path fill-rule="evenodd" clip-rule="evenodd" d="M1.46841 3.69052C1.61605 1.89943 3.11278 0.520996 4.90994 0.520996H5.08992C6.88708 0.520996 8.38381 1.89943 8.53144 3.69052C8.61075 4.65266 8.31355 5.60803 7.70245 6.3554L5.70534 8.79781C5.34075 9.24369 4.65911 9.24369 4.29452 8.79781L2.29741 6.3554C1.68631 5.60804 1.38911 4.65266 1.46841 3.69052ZM4.90994 1.146C3.43805 1.146 2.21222 2.27495 2.0913 3.74186C2.0253 4.54263 2.27265 5.33776 2.78126 5.95978L4.77836 8.40219C4.89288 8.54223 5.10698 8.54223 5.22149 8.40218L7.2186 5.95977C7.72721 5.33776 7.97456 4.54263 7.90856 3.74186C7.78764 2.27494 6.56181 1.146 5.08992 1.146H4.90994Z" fill="#E71C20"/>
</svg>
