<svg width="50" height="50" viewBox="0 0 50 50" fill="none" xmlns="http://www.w3.org/2000/svg">
<path fill-rule="evenodd" clip-rule="evenodd" d="M16.1462 15.6252C16.1462 10.7351 20.1103 6.771 25.0003 6.771C29.8903 6.771 33.8545 10.7351 33.8545 15.6252C33.8545 20.5152 29.8903 24.4793 25.0003 24.4793C20.1103 24.4793 16.1462 20.5152 16.1462 15.6252ZM25.0003 9.896C21.8362 9.896 19.2712 12.461 19.2712 15.6252C19.2712 18.7893 21.8362 21.3543 25.0003 21.3543C28.1645 21.3543 30.7295 18.7893 30.7295 15.6252C30.7295 12.461 28.1645 9.896 25.0003 9.896Z" fill="black"/>
<path fill-rule="evenodd" clip-rule="evenodd" d="M16.667 30.7293C14.0782 30.7293 11.9795 32.828 11.9795 35.4168V37.8924C11.9795 37.9301 12.0068 37.9622 12.044 37.9683C20.6248 39.3693 29.3759 39.3693 37.9566 37.9683C37.9938 37.9622 38.0212 37.9301 38.0212 37.8924V35.4168C38.0212 32.828 35.9225 30.7293 33.3337 30.7293H32.6235C32.5686 30.7293 32.514 30.738 32.4618 30.7551L30.6587 31.3438C26.982 32.5444 23.0187 32.5444 19.342 31.3438L17.5388 30.7551C17.4866 30.738 17.432 30.7293 17.3771 30.7293H16.667ZM8.85449 35.4168C8.85449 31.1021 12.3523 27.6043 16.667 27.6043H17.3771C17.7615 27.6043 18.1434 27.6651 18.5088 27.7844L20.312 28.3732C23.3584 29.368 26.6423 29.368 29.6887 28.3732L31.4918 27.7844C31.8572 27.6651 32.2392 27.6043 32.6235 27.6043H33.3337C37.6484 27.6043 41.1462 31.1021 41.1462 35.4168V37.8924C41.1462 39.4617 40.0089 40.7996 38.4602 41.0525C29.546 42.5079 20.4547 42.5079 11.5405 41.0525C9.99175 40.7996 8.85449 39.4616 8.85449 37.8924V35.4168Z" fill="black"/>
</svg>
