<svg width="104" height="104" viewBox="0 0 104 104" fill="none" xmlns="http://www.w3.org/2000/svg">
<path d="M70.1688 45.9874C70.4138 46.0528 70.6657 46.0837 70.9107 46.0837C71.8744 46.0837 72.7734 45.6076 73.0993 44.8499C73.8226 43.1818 76.136 42.2859 78.2575 42.8511C82.7918 44.0576 87.7398 42.1442 89.2767 38.5773C89.688 37.6287 89.0409 36.5948 87.8323 36.2714C86.619 35.9497 85.3109 36.4585 84.8995 37.4089C84.1785 39.0788 81.8651 39.9746 79.7413 39.4077C75.2139 38.2066 70.2613 40.1163 68.7221 43.6815C68.3131 44.63 68.9602 45.6639 70.1688 45.9874Z" fill="black"/>
<path d="M75.6365 33.3255C75.8815 33.391 76.1334 33.4218 76.3784 33.4218C77.3421 33.4218 78.2411 32.9458 78.567 32.188C78.9159 31.3794 79.6439 30.7253 80.6192 30.3473C81.5944 29.9694 82.6968 29.9149 83.7252 30.1892C88.2595 31.3958 93.2052 29.4824 94.7444 25.9136C95.1557 24.9651 94.5063 23.9312 93.3 23.6077C92.0913 23.2807 90.7786 23.7949 90.3695 24.7452C89.6485 26.417 87.3397 27.3128 85.2113 26.7459C83.0111 26.1589 80.6562 26.2789 78.5762 27.0875C76.4963 27.8943 74.9386 29.2916 74.1921 31.0197C73.7785 31.97 74.4279 33.0021 75.6365 33.3255Z" fill="black"/>
<path d="M81.1003 20.664C81.3476 20.7294 81.5972 20.7603 81.8444 20.7603C82.8081 20.7603 83.7071 20.2842 84.033 19.5265C84.5645 18.2945 86.277 17.6313 87.8416 18.0492C89.7714 18.5634 91.8398 18.458 93.6678 17.7512C95.4935 17.0425 96.8594 15.8178 97.5157 14.3005C97.9271 13.352 97.28 12.3181 96.0713 11.9946C94.858 11.6694 93.5499 12.1818 93.1386 13.1321C92.8797 13.73 92.3413 14.2133 91.6225 14.4913C90.9038 14.7693 90.0903 14.8111 89.3276 14.6058C85.348 13.5501 81.0055 15.2291 79.6559 18.3563C79.2468 19.3084 79.8916 20.3405 81.1003 20.664Z" fill="black"/>
<path d="M97.8413 45.8527C97.4392 45.6364 96.9862 45.5129 96.524 45.4656C101.116 33.7327 103.635 22.2378 103.996 11.2898C104.109 7.84639 101.969 3.24915 97.6541 1.12134C95.5834 0.0983169 92.1908 -0.744813 87.7859 1.03775C80.8828 3.83789 75.9464 12.0748 71.9806 18.6962C71.7518 19.0778 71.5276 19.4503 71.3058 19.8192C70.4299 16.652 67.7675 13.9427 63.982 12.529C63.09 9.15652 59.6881 6.51446 55.4126 5.82942C55.3664 5.64044 55.3086 5.4551 55.237 5.26794C54.3565 2.90209 51.7011 1.12134 48.6297 0.834239C46.8987 0.672518 45.1839 0.954167 43.7187 1.62831C42.4707 1.08136 41.0702 0.790629 39.6327 0.790629C35.6138 0.790629 32.2373 2.99476 31.3568 5.9439C26.9635 6.88515 23.7419 10.056 23.7072 13.741C18.6945 14.7586 15.0431 18.3201 15.0431 22.5557C15.0431 23.6787 15.3111 24.7908 15.8265 25.8392C14.5254 27.1021 13.8043 28.683 13.8043 30.342C13.8043 31.3377 14.0655 32.2972 14.5577 33.1839C12.249 31.2033 8.99965 29.5843 5.35049 29.6896C4.07478 29.7224 3.07178 30.56 3.11107 31.5631C3.15036 32.5461 4.17647 33.3238 5.41982 33.3238C5.4984 33.3256 5.57004 33.3202 5.64399 33.3202C7.80945 33.3202 9.82238 34.4468 11.2876 35.7551C7.62226 36.5855 3.20351 37.9374 1.14205 40.9938C-0.0989871 42.8381 -0.244583 45.1004 0.582776 47.6916C0.182963 48.2167 -0.0365876 48.8272 0.00501144 49.4778L3.93843 93.4277C4.29664 98.939 10.0743 103.255 17.0907 103.255H81.9644C88.9807 103.255 94.7584 98.939 95.1143 93.4604L99.1471 47.9823C99.1471 47.9714 99.1494 47.9605 99.1494 47.9496C99.2141 47.1119 98.7218 46.3287 97.8413 45.8527ZM73.1916 25.0161C74.1068 23.6733 75.1051 22.0088 76.1613 20.2444C79.6348 14.4442 84.3956 6.50175 89.9028 4.26672C91.9135 3.45267 93.6445 3.43631 95.1975 4.19767C97.876 5.52052 99.4521 8.85851 99.3759 11.1953C99.0223 21.9379 96.5263 33.2439 91.9551 44.8006C91.8048 45.1803 91.4721 45.9472 90.9983 46.9992L87.0602 48.3748C86.9747 48.4057 86.8915 48.4384 86.8107 48.4784C85.6736 49.0144 84.3979 49.2797 83.1222 49.2906C81.8465 49.2797 80.5731 49.0144 79.4361 48.4784L77.7883 47.7006C75.8932 46.8066 73.7694 46.3596 71.6455 46.3596C71.6201 46.3596 71.5946 46.3633 71.5669 46.3633C69.4176 46.3524 67.2637 46.7939 65.3455 47.7006L63.7001 48.4784C62.7826 48.9108 61.768 49.1216 60.7419 49.2125C60.7997 49.0544 60.8667 48.8999 60.9268 48.7437C61.56 47.0519 62.2395 45.3839 62.9513 43.7285C63.2217 43.0998 63.5036 42.4747 63.7856 41.8514C64.3795 40.5377 65.0012 39.2403 65.6437 37.952C65.9302 37.3759 66.2099 36.7945 66.5057 36.2239C68.5209 32.3589 70.7442 28.6103 73.1916 25.0161ZM43.7302 29.3262C44.0006 29.0537 44.2641 28.7884 44.5137 28.5303C44.5137 28.5267 44.5183 28.5231 44.5183 28.5231C44.7009 28.3323 44.8603 28.1342 44.9944 27.9361C45.5629 27.0948 45.6969 26.15 45.4335 25.2269L55.0798 23.5679C55.1445 23.8005 55.2139 24.0312 55.3248 24.2456C55.757 25.0779 56.5289 25.7702 57.6035 26.2535C57.9548 26.4062 58.3222 26.5588 58.7013 26.7169C59.0132 26.8459 59.3252 26.9804 59.6395 27.1148C59.7898 27.1784 59.9423 27.242 60.0925 27.3074C60.3675 27.4292 60.6333 27.5636 60.9014 27.6963C61.1302 27.8071 61.3567 27.9216 61.5785 28.0434C61.8351 28.1833 62.08 28.3377 62.325 28.494C62.5399 28.6321 62.7456 28.7829 62.949 28.9374C63.1685 29.1064 63.3858 29.279 63.5868 29.468C63.9427 29.8023 64.2848 30.1494 64.5644 30.5655C63.5845 32.2663 62.6624 34.0016 61.7703 35.7515C61.6317 36.0222 61.4838 36.2857 61.3474 36.5564C58.8145 37.0616 56.3671 38.0065 53.3442 39.6982C49.5356 41.826 46.6999 42.3911 42.027 41.8587L40.6242 36.809C39.672 33.3947 41.7358 31.3268 43.7302 29.3262ZM55.1908 18.291C55.2508 18.2819 55.3109 18.2765 55.371 18.2765C55.8078 18.2765 56.2169 18.5218 56.3116 18.8671C56.3856 19.1287 56.2608 19.334 56.1776 19.434C56.0967 19.5321 55.9141 19.7047 55.5836 19.7611L42.8174 21.9579C42.3089 22.0451 41.7912 21.7798 41.6803 21.3837C41.5694 20.9858 41.9045 20.5769 42.4106 20.4897L49.1936 19.3231L55.1908 18.291ZM47.7214 46.396C47.5458 46.4051 47.3678 46.4087 47.1922 46.4232C45.9327 46.5232 44.6893 46.7739 43.5084 47.1919L43.067 45.6019C43.7325 45.6455 44.3958 45.6891 45.0175 45.6891C49.048 45.6891 52.2927 44.7461 56.0227 42.66C57.1968 42.0023 58.2367 41.5044 59.2259 41.0919C59.0132 41.5661 58.8029 42.0386 58.5973 42.5147C58.4493 42.8563 58.2899 43.1924 58.1466 43.5359C57.4672 45.1531 56.8201 46.783 56.2169 48.4275L54.68 47.7043C52.7849 46.8103 50.6611 46.3633 48.5372 46.3633C48.5095 46.3633 48.4794 46.3669 48.4517 46.3669C48.2067 46.3633 47.9641 46.3851 47.7214 46.396ZM20.0789 27.6054L21.5926 26.6242L20.6104 25.2923C19.9957 24.4564 19.6698 23.5115 19.6698 22.5557C19.6698 19.6121 22.6025 17.2117 26.3464 17.0881L29.1521 16.9954L28.498 14.8476C28.3871 14.4879 28.3316 14.1335 28.3316 13.7974C28.3316 11.457 30.6566 9.48541 33.624 9.30733L35.7594 9.18014V7.37213C35.8264 5.73857 37.5389 4.42481 39.635 4.42481C40.8414 4.42481 41.7057 4.85728 42.2165 5.2207L43.8365 6.37091L45.3896 5.16437C46.1014 4.61197 47.0789 4.35394 48.0866 4.4448C49.3253 4.55928 50.4438 5.31882 50.8044 6.2946C50.9269 6.62167 50.9615 6.93785 50.913 7.25947L50.6426 9.28916H53.2448C56.5658 9.28916 59.3437 11.3298 59.5725 13.9355L59.6765 15.1293L61.1117 15.5254C64.7239 16.523 67.0996 19.2105 67.0188 22.2178C66.9841 23.5024 66.4572 24.7399 65.5027 25.8247C63.9566 24.7926 62.2903 24.0966 60.8898 23.517C60.527 23.3662 60.1757 23.2208 59.8221 23.0663C59.7227 23.0227 59.6026 22.9464 59.561 22.7556C59.5055 22.494 59.6303 22.1796 59.8822 21.9488C60.8898 21.0294 61.2943 19.7756 60.9684 18.5927L60.6888 17.5915C60.4091 16.5811 59.6419 15.718 58.5325 15.1584C57.4255 14.6005 56.1082 14.4134 54.8256 14.635L54.2062 14.7423C54.1993 14.7441 54.1924 14.7423 54.1854 14.7441L47.4025 15.9106L40.7836 17.0463C39.501 17.2662 38.4032 17.8677 37.6914 18.7417C36.9796 19.6121 36.7439 20.6496 37.0235 21.6581L37.1622 22.1524V22.1578C37.1622 22.1578 37.1645 22.1614 37.1645 22.1651L37.3009 22.6575C37.636 23.8677 38.706 24.8871 40.1596 25.3777C40.5202 25.4994 40.8206 25.7302 40.9246 25.9646C40.9847 26.0991 40.95 26.1681 40.816 26.3426V26.3444C40.5872 26.5861 40.3399 26.8314 40.088 27.0839C39.8338 27.3383 39.5703 27.6054 39.3022 27.8816C39.2121 27.9743 39.1266 28.0706 39.0365 28.1651C38.8446 28.3704 38.6528 28.5794 38.4633 28.7975C38.3593 28.9156 38.2599 29.0373 38.1583 29.1609C37.9826 29.3735 37.8139 29.5933 37.6475 29.8187C37.5505 29.9495 37.4557 30.0785 37.3633 30.2148C37.1899 30.4692 37.0328 30.7363 36.8779 31.0089C36.8109 31.1251 36.7393 31.236 36.6792 31.3577C36.4758 31.7539 36.2956 32.1682 36.1523 32.6043C36.1292 32.6733 36.1199 32.7478 36.0991 32.8187C35.9882 33.1894 35.898 33.5728 35.8403 33.9725C35.8172 34.1324 35.8125 34.2996 35.7987 34.465C35.7802 34.6794 35.7455 34.8829 35.7455 35.1064C35.7363 35.0973 35.727 35.0882 35.7178 35.0791C35.6854 35.0464 35.6531 35.0174 35.623 34.9846C35.2209 34.5685 34.8188 34.1851 34.4144 33.8217C34.2872 33.7072 34.1578 33.5964 34.0284 33.4874C33.6887 33.1984 33.349 32.9277 33.0069 32.6733C32.896 32.5915 32.7851 32.5025 32.6718 32.4225C32.2396 32.1191 31.8052 31.8411 31.3684 31.594C31.2459 31.5249 31.1211 31.4668 30.9986 31.4013C30.6704 31.2287 30.3423 31.0688 30.0095 30.9271C29.8477 30.858 29.6882 30.7908 29.5242 30.729C29.1798 30.5964 28.8331 30.4837 28.4842 30.3856C28.3686 30.3529 28.2531 30.3093 28.1375 30.2802C27.7585 30.1857 27.3772 30.1094 26.9935 30.0531C26.9496 30.0458 26.9057 30.0494 26.8618 30.044C26.7832 30.0331 26.707 30.0095 26.6284 30.0004C26.3603 29.9695 26.1061 29.9822 25.8426 29.9677C25.6577 29.9586 25.4752 29.9277 25.2903 29.9277C25.2348 29.9277 25.177 29.9386 25.1193 29.9386C24.7611 29.9422 24.4144 29.9749 24.0654 30.0094C23.8921 30.0276 23.7188 30.0385 23.5454 30.064C23.0902 30.1294 22.6488 30.2202 22.212 30.3293C22.1449 30.3456 22.0802 30.3583 22.0132 30.3765C20.8623 30.6836 19.7715 31.1179 18.75 31.643C18.5397 31.2342 18.4288 30.7944 18.4288 30.342C18.4311 29.279 19.0319 28.2814 20.0789 27.6054ZM5.23031 42.6927C6.20789 41.2445 8.58135 40.1397 12.702 39.213C14.6294 38.7805 16.4181 37.9719 17.8695 36.8817C18.5281 36.3856 19.1452 35.9659 19.7414 35.5843C21.6042 34.3941 23.2103 33.7472 24.664 33.6C24.6964 33.5964 24.7287 33.5928 24.7611 33.5909C25.221 33.551 25.667 33.5619 26.0992 33.6218C26.2124 33.6382 26.328 33.6691 26.4435 33.6927C26.6584 33.7345 26.8711 33.7763 27.086 33.8435C27.2246 33.8853 27.3633 33.9489 27.5043 33.9998C27.7054 34.0761 27.9041 34.1451 28.1052 34.2415C28.2623 34.316 28.4195 34.4123 28.5766 34.4977C28.7638 34.6012 28.951 34.6957 29.1405 34.8157C29.3162 34.9265 29.4918 35.061 29.6674 35.1863C29.8431 35.3117 30.0187 35.4262 30.1944 35.5661C30.3885 35.7206 30.5849 35.9005 30.7814 36.0731C30.9408 36.213 31.1003 36.342 31.2621 36.4928C31.4816 36.7 31.7035 36.9362 31.9253 37.1652C32.0663 37.3105 32.205 37.4414 32.346 37.5958C32.5979 37.872 32.8521 38.1791 33.1063 38.4844C33.2172 38.6188 33.3305 38.7388 33.4414 38.8769C33.8089 39.3329 34.1786 39.8181 34.5507 40.3342C36.2516 42.6946 36.8155 46.1816 36.076 49.2179C35.9535 49.2088 35.8333 49.1943 35.7109 49.1798C34.8303 49.0616 33.9822 48.84 33.2103 48.4765L31.5625 47.6988C29.6674 46.8048 27.5436 46.3578 25.4197 46.3578C25.3943 46.3578 25.3689 46.3615 25.3411 46.3615C23.1919 46.3505 21.0379 46.7921 19.1198 47.6988L18.3178 48.0768C16.9196 48.7364 15.3527 49.0689 13.7858 49.0798C12.2166 49.0689 10.6521 48.7382 9.25386 48.0768L6.14549 46.6086L6.14318 46.6068C5.73412 46.416 5.29271 46.2851 4.83974 46.2197C4.47691 44.7824 4.60633 43.6195 5.23031 42.6927ZM90.5107 93.2406C90.2772 96.8166 86.5264 99.6186 81.9736 99.6186H17.0976C12.5425 99.6186 8.79396 96.8166 8.55824 93.2061L4.71264 50.2464L6.72326 51.1949C8.90258 52.2234 11.35 52.7285 13.7905 52.7176C16.2333 52.7285 18.6784 52.2234 20.8577 51.1949L21.6596 50.817C22.7967 50.2791 24.0701 50.0138 25.3458 50.0029C26.6215 50.0138 27.8949 50.2791 29.0342 50.817L30.682 51.5947C32.7666 52.5777 35.1285 52.9993 37.4626 52.8993C37.6706 52.8921 37.8786 52.8921 38.0889 52.8775C38.1144 52.8757 38.1375 52.8648 38.1652 52.863C39.7436 52.7231 41.2921 52.3324 42.7203 51.6928C42.8543 51.6546 42.9976 51.6528 43.1224 51.5947L44.7702 50.817C45.9072 50.2791 47.1806 50.0138 48.4563 50.0029C49.732 50.0138 51.0054 50.2791 52.1448 50.817L53.7926 51.5947C55.542 52.4178 57.4879 52.8448 59.4454 52.9084C59.4847 52.9103 59.5263 52.9139 59.5656 52.9139C60.2404 52.9302 60.9152 52.9139 61.5855 52.8394C61.9691 52.8012 62.3412 52.7249 62.7179 52.6577C62.9004 52.6231 63.083 52.5923 63.2633 52.5505C64.2894 52.327 65.2947 52.0344 66.2307 51.5929L67.8785 50.8151C69.0155 50.2773 70.2889 50.012 71.5646 50.0011C72.8403 50.012 74.1137 50.2773 75.2531 50.8151L76.9008 51.5929C78.8098 52.4923 80.9521 52.9339 83.0922 52.9266C83.1268 52.9266 83.1638 52.9321 83.1985 52.9321C85.2738 52.9321 87.3514 52.5069 89.2142 51.6528L93.7484 50.0683C93.8455 50.0338 93.9148 49.9684 94.005 49.9248L94.3586 49.8012L90.5107 93.2406Z" fill="black"/>
<path d="M13.8691 78.1426H30.0465C31.3222 78.1426 32.3576 77.3304 32.3576 76.3255C32.3576 75.3207 31.3222 74.5084 30.0465 74.5084H13.8691C12.5934 74.5084 11.5581 75.3207 11.5581 76.3255C11.5581 77.3304 12.5934 78.1426 13.8691 78.1426Z" fill="black"/>
<path d="M13.8691 85.4109H34.6686C35.9443 85.4109 36.9797 84.5986 36.9797 83.5938C36.9797 82.5889 35.9443 81.7767 34.6686 81.7767H13.8691C12.5934 81.7767 11.5581 82.5889 11.5581 83.5938C11.5581 84.5986 12.5934 85.4109 13.8691 85.4109Z" fill="black"/>
<path d="M39.2907 89.045H13.8691C12.5934 89.045 11.5581 89.8572 11.5581 90.8621C11.5581 91.8669 12.5934 92.6791 13.8691 92.6791H39.2907C40.5664 92.6791 41.6018 91.8669 41.6018 90.8621C41.6018 89.8572 40.5664 89.045 39.2907 89.045Z" fill="black"/>
<path d="M53.1571 89.045H48.535C47.2593 89.045 46.2239 89.8572 46.2239 90.8621C46.2239 91.8669 47.2593 92.6791 48.535 92.6791H53.1571C54.4328 92.6791 55.4681 91.8669 55.4681 90.8621C55.4681 89.8572 54.4328 89.045 53.1571 89.045Z" fill="black"/>
</svg>
