<svg width="10" height="10" viewBox="0 0 10 10" fill="none" xmlns="http://www.w3.org/2000/svg">
<path d="M4.72369 1.5625C4.53285 1.5625 4.35409 1.65586 4.24503 1.81246L2.48175 4.34458C2.15063 4.82007 2.00305 5.39945 2.06634 5.9754L2.20193 7.20932C2.25988 7.73661 2.67382 8.15428 3.20058 8.21694L4.08268 8.32188C4.75629 8.40201 5.43928 8.33255 6.08296 8.11845C6.53352 7.96859 6.8944 7.62662 7.06827 7.18477L7.78019 5.37558C7.81462 5.28807 7.83842 5.19674 7.85107 5.10355C7.9612 4.29223 7.22811 3.62009 6.42937 3.80007L4.80524 4.16603L5.28851 2.2914C5.38368 1.92223 5.10492 1.56249 4.72369 1.5625Z" fill="#E71C20"/>
</svg>
