<svg width="10" height="10" viewBox="0 0 10 10" fill="none" xmlns="http://www.w3.org/2000/svg">
<path d="M5.36035 1.24856C5.19978 0.971834 4.80015 0.971833 4.63957 1.24856L3.50872 3.19744C3.4294 3.33414 3.29229 3.42743 3.13602 3.45103L1.01672 3.77113C0.660768 3.82489 0.53591 4.27431 0.813121 4.50398L2.39191 5.81199C2.53805 5.93306 2.60677 6.12405 2.57127 6.31048L2.15828 8.47929C2.093 8.82214 2.45291 9.08852 2.76172 8.92591L4.75731 7.87515C4.90919 7.79518 5.09073 7.79518 5.24262 7.87515L7.23821 8.92591C7.54702 9.08852 7.90693 8.82214 7.84165 8.47929L7.42866 6.31048C7.39316 6.12405 7.46188 5.93306 7.60802 5.81199L9.18681 4.50398C9.46402 4.27431 9.33916 3.82489 8.98321 3.77113L6.86391 3.45103C6.70763 3.42743 6.57053 3.33414 6.49121 3.19744L5.36035 1.24856Z" fill="#E71C20"/>
</svg>
